<?xml version="1.0" encoding="UTF-8" standalone="no"?>
<svg
   viewBox="0 0 48 48"
   width="48px"
   height="48px"
   version="1.1"
   id="svg31"
   sodipodi:docname="CloudUpload.svg"
   inkscape:version="1.1 (c68e22c387, 2021-05-23)"
   xmlns:inkscape="http://www.inkscape.org/namespaces/inkscape"
   xmlns:sodipodi="http://sodipodi.sourceforge.net/DTD/sodipodi-0.dtd"
   xmlns="http://www.w3.org/2000/svg"
   xmlns:svg="http://www.w3.org/2000/svg">
  <defs
     id="defs35" />
  <sodipodi:namedview
     id="namedview33"
     pagecolor="#ffffff"
     bordercolor="#666666"
     borderopacity="1.0"
     inkscape:pageshadow="2"
     inkscape:pageopacity="0.0"
     inkscape:pagecheckerboard="0"
     showgrid="false"
     inkscape:zoom="16.3125"
     inkscape:cx="11.923372"
     inkscape:cy="24"
     inkscape:window-width="1920"
     inkscape:window-height="1001"
     inkscape:window-x="2391"
     inkscape:window-y="-9"
     inkscape:window-maximized="1"
     inkscape:current-layer="svg31" />
  <path
     fill="#3dd9eb"
     d="m 38.293605,17.008406 c -0.04,0 -0.08,0.006 -0.12,0.006 -1.995,-5.906 -7.525,-10.1599998 -14.051,-10.1599998 -6.526,0 -12.056,4.2539998 -14.052,10.1599998 -0.04,0 -0.079,-0.006 -0.1199997,-0.006 -5.9069999,0 -10.59699994,5.261 -9.72399994,11.395 0.70200001,4.923 5.10500004,8.451 10.03099964,8.451 h 0.151 27.429 0.151 c 4.927,0 9.329,-3.528 10.03,-8.451 0.872,-6.134 -3.818,-11.395 -9.725,-11.395 z"
     id="path23"
     style="fill:#cccccc;fill-opacity:1" />
  <g
     id="g1449"
     style="fill:#00aad4"
     transform="matrix(0.93358876,0,0,0.77318008,1.9923372,3.1754789)">
    <polygon
       fill="#6c19ff"
       points="18,21 24,14 30,21 "
       id="polygon25"
       style="fill:#00aad4" />
    <polygon
       fill="#6c19ff"
       points="26,19 22,19 22,34 26,34 "
       id="polygon27"
       style="fill:#00aad4" />
  </g>
</svg>
