<?xml version="1.0" standalone="no"?>
<!DOCTYPE svg PUBLIC "-//W3C//DTD SVG 20010904//EN"
 "http://www.w3.org/TR/2001/REC-SVG-20010904/DTD/svg10.dtd">
<svg version="1.0" xmlns="http://www.w3.org/2000/svg"
 width="180.000000pt" height="171.000000pt" viewBox="0 0 180.000000 171.000000"
 preserveAspectRatio="xMidYMid meet">

<g transform="translate(0.000000,171.000000) scale(0.100000,-0.100000)"
fill="#000000" stroke="none">
<path d="M360 1699 c-121 -20 -244 -108 -303 -218 -50 -91 -56 -163 -57 -626
0 -238 5 -448 10 -485 22 -137 110 -258 231 -319 l62 -31 597 0 597 0 62 31
c121 61 202 170 227 307 16 94 20 880 4 982 -31 193 -177 333 -373 360 -95 12
-978 12 -1057 -1z m560 -91 c0 -6 7 -20 16 -29 21 -23 26 -89 7 -89 -8 0 -13
-11 -13 -29 0 -28 3 -30 48 -37 259 -37 459 -239 489 -492 5 -42 9 -52 24 -52
12 0 19 7 19 20 0 18 4 20 43 14 23 -4 49 -13 58 -20 8 -8 21 -14 27 -14 18 0
15 -9 -15 -39 -16 -15 -37 -27 -48 -28 -11 -1 -30 -4 -42 -8 -19 -6 -23 -4
-23 14 0 14 -6 21 -20 21 -16 0 -20 -7 -20 -34 0 -57 -47 -190 -91 -255 -93
-139 -276 -251 -410 -251 -38 0 -39 -1 -39 -35 0 -24 5 -35 14 -35 18 0 10
-67 -10 -91 -8 -8 -14 -21 -14 -27 0 -24 -26 -11 -41 21 -19 36 -39 86 -39 92
0 3 9 5 20 5 16 0 20 7 20 35 0 34 -1 35 -39 35 -100 0 -244 71 -341 169 -80
81 -126 171 -148 287 -15 76 -18 84 -39 84 -16 0 -23 -6 -23 -20 0 -23 -17
-25 -43 -6 -9 7 -28 11 -41 9 -18 -4 -29 2 -42 22 -17 25 -16 26 7 43 13 9 33
18 44 18 11 1 32 5 48 9 23 6 27 4 27 -14 0 -15 6 -21 23 -21 20 0 24 8 38 83
21 105 51 174 108 248 85 109 200 179 341 206 78 16 80 17 80 45 0 21 -5 28
-20 28 -11 0 -20 1 -20 3 1 6 28 75 40 100 13 27 40 37 40 15z"/>
<path d="M795 1373 c-142 -32 -282 -138 -344 -261 -33 -66 -61 -159 -61 -204
l0 -28 236 0 235 0 -68 75 c-44 49 -71 71 -77 65 -17 -17 -27 -11 -37 20 -6
17 -17 30 -25 30 -10 0 -14 12 -14 40 l0 41 37 -7 c21 -4 44 -13 51 -21 7 -7
20 -13 27 -13 19 0 29 -19 17 -33 -8 -9 6 -31 49 -80 l59 -68 0 225 0 226 -32
-1 c-18 -1 -42 -3 -53 -6z"/>
<path d="M930 1154 l0 -229 67 68 c57 56 66 70 57 84 -9 14 -5 21 21 39 17 11
49 24 69 28 l38 7 -7 -33 c-4 -18 -16 -52 -27 -76 -19 -40 -21 -42 -38 -27
-16 15 -22 11 -85 -57 l-67 -73 227 -3 c125 -1 230 0 233 3 12 12 -20 144 -52
212 -71 148 -222 259 -382 279 l-54 6 0 -228z"/>
<path d="M390 817 c0 -40 38 -161 66 -212 40 -72 139 -167 212 -204 54 -27
163 -60 200 -61 9 0 12 57 12 250 l0 250 -245 0 -245 0 0 -23z"/>
<path d="M930 590 c0 -193 3 -250 13 -250 6 0 41 7 76 15 206 49 367 226 397
438 l6 47 -246 0 -246 0 0 -250z"/>
</g>
</svg>
